<svg width="13" height="27" viewBox="0 0 13 27" fill="none" xmlns="http://www.w3.org/2000/svg">
    <rect y="25.1626" width="13" height="1.83743" fill="white"/>
    <path fill-rule="evenodd" clip-rule="evenodd" d="M9.48288 7.19659H3.42809L2.40411 25.1626H10.5069L9.48288 7.19659ZM9.3493 20.569H6.94519V25.1626H9.3493V20.569Z" fill="white"/>
    <path fill-rule="evenodd" clip-rule="evenodd" d="M2.31512 6.32892C2.31512 6.00312 2.49468 5.71927 2.76024 5.57091V5.76749H3.73969V5.46125H3.17951L3.1828 5.46124H9.81731C9.81841 5.46124 9.81951 5.46124 9.8206 5.46125H9.17123V5.76749H10.2397V5.57083C10.5054 5.71916 10.685 6.00306 10.685 6.32892C10.685 6.80812 10.2965 7.19659 9.81731 7.19659H3.1828C2.7036 7.19659 2.31512 6.80812 2.31512 6.32892Z" fill="white"/>
    <rect x="3.73975" y="2.50098" width="5.43151" height="2.9603" fill="white"/>
    <rect x="3.11646" y="1.78644" width="6.76712" height="0.714556" fill="white"/>
    <path d="M3.11646 1.78639L6.4555 0L9.88358 1.78639H3.11646Z" fill="white"/>
</svg>
