<svg height="20" viewBox="0 0 64 64" width="20" xmlns="http://www.w3.org/2000/svg"><g id="Marker"><path d="m59.907 12.652-4.559-4.559a5.007 5.007 0 0 0 -6.862-.2l-36.071 32.139a1 1 0 0 0 -.335.746v4.929a10.938 10.938 0 0 1 -3.235 7.793l-6.565 6.806a1 1 0 0 0 .72 1.694h8a1 1 0 0 0 .674-.261l2.841-2.6a10.924 10.924 0 0 1 7.778-3.222h4.929a1 1 0 0 0 .747-.335l32.136-36.068a5 5 0 0 0 -.198-6.862zm-49.295 47.348h-5.258l4.2-4.359 2.783 2.782zm3.2-2.932-2.879-2.88a12.9 12.9 0 0 0 3.146-8.481v-2.213l10.427 10.426h-2.213a12.9 12.9 0 0 0 -8.48 3.148zm44.8-38.884-31.574 35.44-12.661-12.662 35.439-31.574a3 3 0 0 1 4.118.119l4.559 4.559a3 3 0 0 1 .118 4.118z"/></g></svg>